<svg width="20" height="19" viewBox="0 0 20 19" fill="none" xmlns="http://www.w3.org/2000/svg">
<path fill-rule="evenodd" clip-rule="evenodd" d="M0 2.71429C0 1.21523 1.22105 0 2.72727 0H6.76223C8.01368 0 9.10455 0.847663 9.40809 2.05597L9.80073 3.61905H11.3636H17.2727C18.779 3.61905 20 4.83428 20 6.33334V8.14287C20 8.64257 19.593 9.04763 19.0909 9.04763C18.5888 9.04763 18.1818 8.64257 18.1818 8.14287V6.33334C18.1818 5.83366 17.7748 5.42858 17.2727 5.42858H11.3636H9.80073H2.72727C2.2252 5.42858 1.81818 5.83366 1.81818 6.33334V7.2381V15.381C1.81818 15.8807 2.2252 16.2857 2.72727 16.2857H7.27273C7.7748 16.2857 8.18182 16.6908 8.18182 17.1905C8.18182 17.6902 7.7748 18.0953 7.27273 18.0953H2.72727C1.22105 18.0953 0 16.8801 0 15.381V7.2381V6.33334V2.71429ZM1.81818 3.7735C2.10253 3.67347 2.40851 3.61905 2.72727 3.61905H7.92656L7.64417 2.49485C7.543 2.09208 7.17938 1.80953 6.76223 1.80953H2.72727C2.2252 1.80953 1.81818 2.21461 1.81818 2.71429V3.7735ZM17.4287 15.1615C17.9046 14.4464 18.1818 13.5887 18.1818 12.6667C18.1818 10.1683 16.1467 8.14287 13.6364 8.14287C11.126 8.14287 9.09091 10.1683 9.09091 12.6667C9.09091 15.1651 11.126 17.1905 13.6364 17.1905C14.5628 17.1905 15.4245 16.9146 16.1431 16.441L18.4481 18.735C18.8031 19.0883 19.3787 19.0883 19.7337 18.735C20.0887 18.3817 20.0887 17.8088 19.7337 17.4555L17.4287 15.1615ZM10.9091 12.6667C10.9091 11.1676 12.1301 9.95239 13.6364 9.95239C15.1426 9.95239 16.3636 11.1676 16.3636 12.6667C16.3636 14.1658 15.1426 15.381 13.6364 15.381C12.1301 15.381 10.9091 14.1658 10.9091 12.6667Z" fill="#565E6C"/>
</svg>
