<svg width="40" height="27" viewBox="0 0 40 27" fill="none" xmlns="http://www.w3.org/2000/svg">
<path fill-rule="evenodd" clip-rule="evenodd" d="M0.509968 19.6954L0.299316 19.4552L0.61742 19.14C1.35615 18.4694 1.97948 17.7864 2.69615 17.2769C2.69615 17.2769 2.70939 17.2686 2.73586 17.2445C10.2264 11.9453 16.6191 14.4638 19.3118 16.0292C19.3295 16.0339 19.3427 16.0422 19.3471 16.0468C19.3515 16.0514 19.3515 16.0514 19.356 16.0561C20.2347 16.536 20.7199 16.9007 20.7199 16.9007L18.2589 19.4935L13.8469 24.1239C13.304 24.6927 12.6915 25.1382 12.0366 25.4587C12.0313 25.4587 12.0278 25.4633 12.0234 25.4633C9.636 26.6434 6.70136 26.1932 4.72964 24.1239L0.509968 19.6954Z" fill="#22CCB2"/>
<path d="M39.4878 20.6841C39.311 21.6199 38.943 22.5152 38.3844 23.292C38.3843 23.2966 38.3795 23.301 38.3747 23.3054C38.3699 23.3098 38.3663 23.3143 38.3626 23.3188C38.359 23.3233 38.3554 23.3277 38.3505 23.3321C38.0991 23.6779 37.8117 24.0051 37.4839 24.3083C36.1121 25.5723 34.3475 26.1735 32.5982 26.1221C30.8518 26.0708 29.1264 25.367 27.8313 24.0246L23.2763 19.2998C22.9556 19.0155 22.6514 18.7117 22.3471 18.4077C21.739 17.8003 21.1305 17.1926 20.3895 16.7389L20.3835 16.735C20.3618 16.721 20.3373 16.705 20.312 16.6921C20.2532 16.658 20.1933 16.6226 20.1313 16.586C20.0676 16.5485 20.0018 16.5097 19.9327 16.4694H19.9281C19.9225 16.4648 19.9225 16.4648 19.9188 16.4648V16.4601C19.9142 16.4554 19.9004 16.446 19.8819 16.4413C19.4205 16.1822 18.8575 15.8986 18.2041 15.6301C18.0942 15.5833 17.9844 15.5374 17.87 15.4963C17.7725 15.4564 17.6717 15.4206 17.571 15.3849C17.5534 15.3787 17.5359 15.3725 17.5184 15.3662C16.9056 15.1435 16.229 14.9395 15.4972 14.787C15.3736 14.7543 15.2499 14.7308 15.1225 14.7084C14.8798 14.6569 14.6333 14.6195 14.3768 14.583C14.148 14.5502 13.9154 14.5231 13.6772 14.5035C13.5905 14.4894 13.5038 14.4847 13.417 14.481C13.2749 14.4669 13.1336 14.4576 12.9869 14.4529C11.5509 14.3827 9.97368 14.5138 8.29118 14.9629C8.11771 15.0088 7.93958 15.0602 7.76052 15.1154C7.32677 15.2455 6.88744 15.3989 6.44352 15.5749C6.31617 15.6254 6.19254 15.6769 6.06885 15.7321C6.05273 15.7389 6.03655 15.7458 6.02037 15.7527C5.90437 15.802 5.78775 15.8516 5.67106 15.9033C5.64136 15.917 5.6116 15.9306 5.58184 15.9443C5.4793 15.9913 5.37631 16.0385 5.27333 16.0886C5.2375 16.1062 5.20141 16.1238 5.1652 16.1415C5.06704 16.1893 4.96799 16.2375 4.87092 16.2888C4.12153 16.6688 3.35736 17.1188 2.58489 17.6428C2.57719 17.6475 2.57091 17.6525 2.56448 17.6576C2.55935 17.6617 2.55412 17.6658 2.54798 17.67C2.52122 17.6934 2.50738 17.7027 2.50738 17.7027C2.19635 17.9114 1.88534 18.1388 1.56971 18.3802C1.22234 18.6459 0.921019 18.9118 0.589963 19.2038C0.494421 19.2881 0.396406 19.3746 0.294093 19.4638C0.117902 19.6642 0.90245 18.7404 0.90245 18.7404L8.85327 10.6791L8.8671 10.6613L9.39776 10.1224L14.5826 4.87009C14.5826 4.87009 14.5872 4.86544 14.601 4.8523C14.6057 4.84293 14.6149 4.83363 14.6195 4.82892L16.5484 2.87697C17.1705 2.24631 17.8838 1.76439 18.648 1.43504C21.1075 0.355188 24.0701 0.838043 26.082 2.87697L33.4186 10.3162L34.9809 11.8103L37.7379 14.6028C39.2984 16.2215 39.8823 18.5346 39.4947 20.6472C39.4926 20.6594 39.4901 20.6718 39.4878 20.6841Z" fill="#5686FF"/>
<path d="M30.9113 24.8072C35.2611 22.6571 36.7588 16.907 34.2565 11.964C33.79 11.0424 33.2174 10.214 32.5662 9.48987L37.8009 14.7305C40.0625 17.0487 40.2728 20.8082 38.4474 23.3167C38.4473 23.3212 38.4425 23.3256 38.4377 23.3299C38.4329 23.3343 38.4292 23.3387 38.4256 23.3431C38.4219 23.3476 38.4183 23.352 38.4135 23.3564C38.162 23.698 37.8747 24.0213 37.5468 24.3209C36.1751 25.57 34.4104 26.1641 32.6612 26.1132C31.603 26.0826 30.5525 25.8151 29.6008 25.314C30.0465 25.1864 30.4847 25.018 30.9113 24.8072Z" fill="#92B1FF"/>
</svg>
