<svg width="52" height="53" viewBox="0 0 52 53" fill="none" xmlns="http://www.w3.org/2000/svg">
<g id="Camera 2">
<g id="Group">
<g id="Group_2">
<g id="Flat">
<path id="Vector" d="M42 12.09L36.4559 12.09L33.7299 8.00201C33.4333 7.55745 32.9344 7.29033 32.4 7.29001L19.6 7.29001C19.0655 7.29033 18.5666 7.55745 18.2699 8.00201L15.542 12.09L9.99995 12.09C7.34898 12.09 5.19995 14.239 5.19995 16.89L5.19995 39.29C5.19995 41.941 7.34898 44.09 9.99995 44.09L42 44.09C44.6509 44.09 46.7999 41.941 46.7999 39.29L46.7999 16.89C46.7999 14.239 44.6509 12.09 42 12.09ZM33.1999 27.29C33.1999 31.2665 29.9764 34.49 26 34.49C22.0235 34.49 18.8 31.2665 18.8 27.29C18.8 23.3136 22.0235 20.09 26 20.09C29.9764 20.09 33.1999 23.3136 33.1999 27.29Z" fill="#636AE8"/>
</g>
</g>
</g>
</g>
</svg>
