<svg width="12" height="12" viewBox="0 0 12 12" fill="none" xmlns="http://www.w3.org/2000/svg">
<g id="Group 25">
<path id="Vector" fill-rule="evenodd" clip-rule="evenodd" d="M0.461539 8C0.716437 8 0.923077 8.17909 0.923077 8.4C0.923077 9.16555 0.924056 9.69947 0.986554 10.1023C1.04726 10.4937 1.15831 10.7009 1.32862 10.8485C1.49894 10.9962 1.73806 11.0924 2.18961 11.145C2.65444 11.1991 3.27052 11.2 4.15385 11.2H7.84615C8.72948 11.2 9.34554 11.1991 9.8104 11.145C10.262 11.0924 10.501 10.9962 10.6714 10.8485C10.8417 10.7009 10.9527 10.4937 11.0135 10.1023C11.0759 9.69947 11.0769 9.16555 11.0769 8.4C11.0769 8.17909 11.2836 8 11.5385 8C11.7934 8 12 8.17909 12 8.4V8.42928C12 9.15867 12 9.74656 11.9283 10.209C11.8538 10.689 11.6945 11.0932 11.3241 11.4142C10.9537 11.7353 10.4873 11.8733 9.93342 11.9379C9.39988 12 8.72154 12 7.87994 12H4.12008C3.27849 12 2.60014 12 2.06662 11.9379C1.5127 11.8733 1.04632 11.7353 0.675908 11.4142C0.305496 11.0932 0.146179 10.689 0.0717049 10.209C-2.4337e-05 9.74656 -1.19853e-05 9.15867 3.22433e-07 8.42928C3.22433e-07 8.41952 3.22433e-07 8.40976 3.22433e-07 8.4C3.22433e-07 8.17909 0.20664 8 0.461539 8Z" fill="#242424"/>
<path id="Vector_2" fill-rule="evenodd" clip-rule="evenodd" d="M6 9C6.13301 9 6.25983 8.94507 6.34958 8.84861L8.87589 6.1331C9.05242 5.94335 9.03903 5.6489 8.84596 5.47541C8.65288 5.30193 8.35326 5.31509 8.17674 5.50483L6.47368 7.33543V0.465517C6.47368 0.208421 6.2616 0 6 0C5.7384 0 5.52632 0.208421 5.52632 0.465517V7.33543L3.82328 5.50483C3.64676 5.31509 3.34714 5.30193 3.15406 5.47541C2.96099 5.6489 2.94757 5.94335 3.12409 6.1331L5.65042 8.84861C5.74017 8.94507 5.86699 9 6 9Z" fill="#242424"/>
</g>
</svg>
