<svg width="16" height="16" viewBox="0 0 16 16" fill="none" xmlns="http://www.w3.org/2000/svg">
<path d="M8 11.6L8 2.40002" stroke="#636AE8" stroke-width="0.96" stroke-miterlimit="10"/>
<path d="M10.4 9.19995L7.99998 11.6L5.59998 9.19995" stroke="#636AE8" stroke-width="0.96" stroke-miterlimit="10" stroke-linecap="square"/>
<path d="M10 7.19995L12 7.19995C12.3183 7.19995 12.6235 7.32638 12.8486 7.55142C13.0736 7.77647 13.2 8.08169 13.2 8.39995L13.2 12.4C13.2 12.7182 13.0736 13.0234 12.8486 13.2485C12.6235 13.4735 12.3183 13.6 12 13.6L4.00005 13.6C3.68179 13.6 3.37656 13.4735 3.15152 13.2485C2.92648 13.0234 2.80005 12.7182 2.80005 12.4L2.80005 8.39995C2.80005 8.08169 2.92648 7.77647 3.15152 7.55142C3.37656 7.32638 3.68179 7.19995 4.00005 7.19995L6.00005 7.19995" stroke="#636AE8" stroke-width="0.96" stroke-miterlimit="10" stroke-linecap="square"/>
</svg>
