<svg width="14" height="14" viewBox="0 0 14 14" fill="none" xmlns="http://www.w3.org/2000/svg">
<path fill-rule="evenodd" clip-rule="evenodd" d="M0 6.99997C0 3.134 3.13402 0 7.00002 0C10.866 0 14 3.134 14 6.99997C14 10.8659 10.866 14 7.00002 14C3.13402 14 0 10.8659 0 6.99997ZM7.00002 1.0041C3.68857 1.0041 1.00411 3.68855 1.00411 6.99997C1.00411 10.3114 3.68857 12.9959 7.00002 12.9959C10.3114 12.9959 12.9959 10.3114 12.9959 6.99997C12.9959 3.68855 10.3114 1.0041 7.00002 1.0041ZM7.79276 10.1711C7.79276 10.6089 7.43785 10.9638 7.00004 10.9638C6.56223 10.9638 6.20733 10.6089 6.20733 10.1711C6.20733 9.73332 6.56223 9.3784 7.00004 9.3784C7.43785 9.3784 7.79276 9.73332 7.79276 10.1711ZM5.46757 5.67909C5.46757 4.96259 6.08597 4.27863 7.00015 4.27863C7.91434 4.27863 8.53273 4.96259 8.53273 5.67909C8.53273 6.19824 8.24734 6.46347 7.75528 6.76239C7.70036 6.79576 7.63702 6.83254 7.56926 6.87189C7.37562 6.98434 7.14585 7.11779 6.97316 7.25234C6.717 7.45192 6.41883 7.77393 6.41883 8.2686C6.41884 8.58966 6.6791 8.84992 7.00016 8.84992C7.31974 8.84992 7.5791 8.59204 7.58146 8.27301L7.58204 8.27209C7.59121 8.25761 7.61836 8.22353 7.68775 8.16946C7.79502 8.08588 7.91447 8.01666 8.07363 7.92442C8.15662 7.87633 8.25045 7.82195 8.35893 7.75605C8.92382 7.41288 9.69535 6.84576 9.69535 5.67909C9.69535 4.28169 8.51696 3.11599 7.00015 3.11599C5.48335 3.11599 4.30492 4.28169 4.30492 5.67909C4.30492 6.00014 4.5652 6.26041 4.88625 6.26041C5.20731 6.26041 5.46757 6.00014 5.46757 5.67909Z" fill="#B5B5B5"/>
</svg>
