<svg width="20" height="20" viewBox="0 0 20 20" fill="none" xmlns="http://www.w3.org/2000/svg">
<path d="M4 16.5L16 16.5C16.3978 16.5 16.7794 16.342 17.0607 16.0607C17.342 15.7794 17.5 15.3978 17.5 15L17.5 7C17.5 6.60218 17.342 6.22064 17.0607 5.93934C16.7794 5.65804 16.3978 5.5 16 5.5L13.5 5.5L12 3L8 3L6.5 5.5L4 5.5C3.60218 5.5 3.22064 5.65804 2.93934 5.93934C2.65804 6.22064 2.5 6.60218 2.5 7L2.5 15C2.5 15.3978 2.65804 15.7794 2.93934 16.0607C3.22064 16.342 3.60218 16.5 4 16.5Z" stroke="white" stroke-width="1.2" stroke-miterlimit="10" stroke-linecap="square"/>
<path d="M10 14.5C11.933 14.5 13.5 12.933 13.5 11C13.5 9.067 11.933 7.5 10 7.5C8.067 7.5 6.5 9.067 6.5 11C6.5 12.933 8.067 14.5 10 14.5Z" stroke="white" stroke-width="1.2" stroke-miterlimit="10" stroke-linecap="square"/>
</svg>
