<svg width="78" height="78" viewBox="0 0 78 78" fill="none" xmlns="http://www.w3.org/2000/svg">
<path d="M67.7999 12.6V24.6C67.7999 25.9255 66.7254 27 65.3999 27C64.0745 27 62.9999 25.9255 62.9999 24.6V15L53.3999 15C52.0745 15 50.9999 13.9255 50.9999 12.6C50.9999 11.2745 52.0745 10.2 53.3999 10.2L65.3999 10.2C66.7254 10.2 67.7999 11.2745 67.7999 12.6ZM24.6 63H15L15 53.4C15 52.0745 13.9254 51 12.6 51C11.2745 51 10.2 52.0745 10.2 53.4L10.2 65.4C10.2 66.7255 11.2745 67.8 12.6 67.8H24.6C25.9254 67.8 27 66.7255 27 65.4C27 64.0745 25.9254 63 24.6 63ZM65.3999 51C64.0745 51 62.9999 52.0745 62.9999 53.4L62.9999 63L53.3999 63C52.0745 63 50.9999 64.0745 50.9999 65.4C50.9999 66.7255 52.0745 67.8 53.3999 67.8L65.3999 67.8C66.7254 67.8 67.7999 66.7255 67.7999 65.4L67.7999 53.4C67.7999 52.0745 66.7254 51 65.3999 51ZM12.6 27C13.9254 27 15 25.9255 15 24.6L15 15L24.6 15C25.9254 15 27 13.9255 27 12.6C27 11.2745 25.9254 10.2 24.6 10.2L12.6 10.2C11.2745 10.2 10.2 11.2745 10.2 12.6L10.2 24.6C10.2 25.9255 11.2745 27 12.6 27ZM55.7999 51V27C55.7999 24.349 53.6509 22.2 50.9999 22.2L27 22.2C24.349 22.2 22.2 24.349 22.2 27L22.2 51C22.2 53.651 24.349 55.8 27 55.8H50.9999C53.6509 55.8 55.7999 53.651 55.7999 51Z" fill="white"/>
<circle cx="39" cy="38.5" r="10.5" stroke="#A9A9A9"/>
<line x1="39.1451" y1="32.4677" x2="39.1451" y2="44.5322" stroke="#A9A9A9"/>
<line x1="32.9678" y1="38.3549" x2="45.0323" y2="38.3549" stroke="#A9A9A9"/>
</svg>
